<?xml version="1.0" encoding="UTF-8"?>
<svg id="Layer_1" data-name="Layer 1" xmlns="http://www.w3.org/2000/svg" viewBox="0 0 956.91 372.87">
  <defs>
    <style>
      .cls-1 {
        fill: #fff;
      }
    </style>
  </defs>
  <g>
    <path class="cls-1" d="M254.52,354.29c-25.85,0-48.42-4.99-67.73-14.99-19.31-9.99-36.87-27.24-52.68-51.73l55.64-33.36c6.69,9.86,13.6,17.73,20.75,23.65,7.14,5.91,14.6,10.21,22.35,12.88,7.75,2.68,15.89,4.01,24.4,4.01s16.34-1.75,23.49-5.28c7.14-3.52,12.92-8.51,17.33-14.99,4.4-6.47,6.61-13.79,6.61-21.96,0-8.72-1.9-16.11-5.7-22.17-3.81-6.05-9.28-10.62-16.42-13.72-7.15-3.09-15.74-4.64-25.77-4.64-4.56,0-9.43.49-14.6,1.48-5.17.99-10.65,2.32-16.42,4.01-5.78,1.69-11.71,3.95-17.79,6.76l-16.88-41.8,77.54-78.12,20.98,10.56-133.18-2.53v-60.38h196.12l14.14,26.18-105.36,104.72-18.24-19.85c2.43-1.12,6.46-2.18,12.09-3.17,5.62-.98,11.02-1.48,16.19-1.48,14.29,0,27.67,2.4,40.14,7.18,12.46,4.79,23.56,11.4,33.29,19.85,9.73,8.45,17.33,18.37,22.81,29.77,5.47,11.4,8.21,23.58,8.21,36.53,0,19.71-5.4,37.23-16.19,52.57-10.8,15.35-25.39,27.52-43.79,36.53-18.4,9.01-38.85,13.51-61.35,13.51Z"/>
    <path class="cls-1" d="M546.87,354.29c-28.58,0-52.98-6.05-73.2-18.16-20.23-12.1-35.65-29.49-46.29-52.15-10.65-22.66-15.96-49.89-15.96-81.71s5.32-59.04,15.96-81.71c10.64-22.66,26.07-40.04,46.29-52.15,20.22-12.1,44.62-18.16,73.2-18.16s53.06,6.06,73.43,18.16c20.37,12.11,35.88,29.49,46.52,52.15,10.64,22.66,15.96,49.9,15.96,81.71s-5.32,59.05-15.96,81.71c-10.65,22.66-26.15,40.05-46.52,52.15-20.38,12.11-44.86,18.16-73.43,18.16ZM546.87,293.48c19.76,0,35.04-7.88,45.84-23.65,10.79-15.76,16.19-38.28,16.19-67.56s-5.4-53.27-16.19-69.46c-10.79-16.18-26.07-24.28-45.84-24.28s-35.05,8.1-45.84,24.28c-10.8,16.19-16.19,39.34-16.19,69.46s5.39,51.8,16.19,67.56c10.79,15.77,26.07,23.65,45.84,23.65Z"/>
  </g>
  <path class="cls-1" d="M68.84,174.18c-15.41,0-28.73-2.22-39.96-6.66-11.24-4.44-20.86-10.88-28.88-19.32l18.86-28.37c8.8,8.44,17.36,14.41,25.7,17.9,8.33,3.49,17.05,5.24,26.17,5.24,4.24,0,8.09-.51,11.55-1.53,3.46-1.02,6.13-2.51,8.02-4.47s2.83-4.4,2.83-7.31c0-2.18-.59-4.15-1.77-5.89-1.18-1.75-2.79-3.27-4.83-4.58-2.04-1.31-4.48-2.51-7.31-3.6s-5.82-2.04-8.96-2.84c-3.15-.8-6.37-1.49-9.67-2.07-12.26-2.47-22.36-5.82-30.29-10.04-7.94-4.22-13.87-9.49-17.8-15.82-3.93-6.33-5.89-13.78-5.89-22.37,0-6.84,1.69-13.13,5.07-18.88,3.38-5.75,7.94-10.69,13.67-14.84,5.74-4.15,12.38-7.35,19.92-9.6,7.54-2.25,15.4-3.38,23.58-3.38,13.36,0,25.3,1.89,35.84,5.67,10.53,3.79,19.96,9.68,28.29,17.68l-16.97,25.76c-6.29-5.96-13.36-10.4-21.22-13.31-7.86-2.91-16.11-4.37-24.75-4.37-4.71,0-8.76.55-12.14,1.64-3.38,1.09-6.01,2.62-7.9,4.58-1.89,1.96-2.83,4.33-2.83,7.09,0,2.48.78,4.58,2.36,6.33,1.57,1.75,3.69,3.31,6.37,4.69,2.67,1.38,5.74,2.55,9.19,3.49,3.46.95,7.07,1.71,10.84,2.29,8.64,1.6,16.46,3.71,23.46,6.33,6.99,2.62,13.04,5.82,18.15,9.6,5.11,3.79,9.04,8.26,11.79,13.42,2.75,5.17,4.13,11.17,4.13,18.01,0,10.62-2.79,19.61-8.37,26.96-5.58,7.35-13.2,12.95-22.87,16.81-9.67,3.85-20.79,5.78-33.36,5.78ZM54.7,191.86l2.59-101.49,19.1,7.2,2.59,94.29h-24.28ZM82.28,97.78l-19.1-7.2L60.59,0h24.28l-2.59,97.78Z"/>
  <g>
    <path class="cls-1" d="M653.15,372.87l75.8-142.05h28.97l-75.44,142.05h-29.34Z"/>
    <path class="cls-1" d="M773.05,348.92v-124.84h28.61v53.48l-5.83,2.02c1.33-4.05,3.74-7.73,7.2-11.05,3.46-3.32,7.62-5.99,12.48-8.01,4.86-2.02,9.96-3.04,15.31-3.04,7.29,0,13.42,1.38,18.4,4.13,4.98,2.76,8.75,6.86,11.3,12.31,2.55,5.46,3.83,12.12,3.83,19.99v55h-29.34v-52.8c0-3.6-.55-6.58-1.64-8.94-1.09-2.36-2.76-4.13-5.01-5.31-2.25-1.18-5.01-1.71-8.29-1.6-2.55,0-4.92.37-7.11,1.1-2.19.73-4.07,1.8-5.65,3.21-1.58,1.41-2.83,3.01-3.74,4.81-.91,1.8-1.37,3.77-1.37,5.91v53.65h-29.16Z"/>
    <path class="cls-1" d="M888.76,348.92v-89.58h27.7l1.28,29.19-5.47-5.57c1.46-4.83,3.86-9.17,7.2-12.99,3.34-3.82,7.26-6.86,11.75-9.11,4.49-2.25,9.29-3.37,14.4-3.37,2.19,0,4.22.17,6.1.51,1.88.34,3.61.73,5.19,1.18l-8.02,29.86c-1.34-.79-3.13-1.43-5.38-1.94-2.25-.51-4.59-.76-7.02-.76-2.67,0-5.17.42-7.47,1.26-2.31.84-4.25,2.05-5.83,3.63-1.58,1.58-2.82,3.43-3.74,5.57-.91,2.14-1.37,4.56-1.37,7.25v44.88h-29.34Z"/>
  </g>
</svg>