<?xml version="1.0" encoding="UTF-8"?>
<svg id="Layer_1" data-name="Layer 1" xmlns="http://www.w3.org/2000/svg" viewBox="0 0 1970.01 602.33">
  <defs>
    <style>
      .cls-1 {
        fill: #fff;
      }
    </style>
  </defs>
  <path class="cls-1" d="M1970.01,0v585.41h-500.75v-29.97h470.76V29.97H556.72v44.96h-42.98l-47.53,200.75c13.29,125-93.72,213.48-215.35,185.38-167.38-38.68-173.47-281.77-9.2-328.9,61.89-17.76,136.45-4.34,181.13,43.65l-57.98,50.53-1.96-.02c-22.37-22.11-53.27-30.04-84.19-25.23-114.25,17.78-97.08,209.62,35.4,188.23,40.75-6.58,61.13-38.33,76.74-73.15,9.67-1.97,19.83-1.67,29.51-3.47,1.6-.3,3.3.45,4.48-1.52.46-2.15-4.25-1.89-5.8-2.17-9.49-1.75-19.29-2.11-28.73-4.25l-56.42-27.03h98.95l47.98-202.8h-39.98V29.97H29.99v525.47h472.76v29.97H0V0h1970.01Z"/>
  <path class="cls-1" d="M1273.36,368.63h-162.92c7.87,39.65,59.19,44.45,85.97,20.49,2.19-1.96,6.62-8.46,8.45-8.49l59.4,30.29c-35.01,61.36-134.24,71.86-187.28,29.6-58.51-46.61-56.91-148.76,4.15-192.59,47.52-34.11,125.16-29.81,164.75,14.79,25.25,28.45,32.98,68.87,27.47,105.91ZM1198.4,319.68c-9.2-44.5-76.28-41.95-87.96,0h87.96Z"/>
  <path class="cls-1" d="M731.63,368.63h-162.92c7.87,39.65,59.19,44.45,85.97,20.49,2.19-1.96,6.62-8.46,8.45-8.49l59.4,30.29c-35.07,61.34-134.22,71.87-187.28,29.6-58.51-46.61-56.91-148.76,4.15-192.59,47.52-34.11,125.16-29.81,164.75,14.79,25.25,28.45,32.98,68.87,27.47,105.91ZM656.67,319.68c-9.2-44.5-76.28-41.95-87.96,0h87.96Z"/>
  <path class="cls-1" d="M997.5,458.54h-75.96v-131.37c0-1.42-2.49-8.86-3.24-10.75-13.63-34.26-71.72-24.89-71.72,13.75v128.37h-74.96v-225.77h70.46l1.5,1.5v18.48l8.08-8.41c60.26-39.98,135.76-8.59,144.83,64.86l1.01,149.34Z"/>
  <path class="cls-1" d="M1425.43,298.57c-3.87-9.61-16.67-15.77-26.62-15.93-20.05-.31-24.19,15.96-4.77,23.81,11.03,4.46,24.45,6.35,36.01,9.96,31.9,9.98,63.31,28.65,66.24,65.67,7.64,96.49-146.11,108.21-191.76,43.81-2.23-3.15-10.92-17.18-9.05-20.17l58.41-25.08c1.89.06,5.61,7.29,7.46,9.44,11.79,13.71,30.66,21.31,48.5,15.57,16.84-5.42,13.14-20.4-.23-27.85-19.39-10.79-47.5-11.49-69.59-24.35-52.2-30.36-42.95-97.64,12.04-119.45,42.5-16.85,112.63-9.15,131.17,39.16l-57.8,25.41Z"/>
  <path class="cls-1" d="M1776.25,298.57c-3.87-9.61-16.67-15.77-26.62-15.93-20.05-.31-24.19,15.96-4.77,23.81,11.03,4.46,24.45,6.35,36.01,9.96,31.9,9.98,63.31,28.65,66.24,65.67,7.64,96.49-146.11,108.21-191.76,43.81-2.23-3.15-10.92-17.18-9.05-20.17l58.41-25.08c1.89.06,5.61,7.29,7.46,9.44,11.79,13.71,30.66,21.31,48.5,15.57,16.84-5.42,13.14-20.4-.23-27.85-19.39-10.79-47.5-11.49-69.59-24.35-52.2-30.36-42.95-97.64,12.04-119.45,42.5-16.85,112.63-9.15,131.17,39.16l-57.8,25.41Z"/>
  <rect class="cls-1" x="1535.23" y="232.77" width="74.96" height="225.77"/>
  <path class="cls-1" d="M1569.01,120.18c59.57-3.96,65.24,80.68,8.68,85.59-62.15,5.4-68.11-81.65-8.68-85.59Z"/>
  <polygon class="cls-1" points="724.64 517.48 724.64 599.4 705.65 599.4 705.65 552.45 682.16 576.4 658.67 552.45 658.67 599.4 638.68 599.4 638.68 517.48 653.17 517.48 682.16 549.43 710.09 518.43 724.64 517.48"/>
  <path class="cls-1" d="M1226.39,514.49v84.92h-18.99v-4.99c-14.54,12.26-36.86,6.28-41.92-12.55-6.48-24.13,9.61-47.08,35.48-38.46,2.56.85,3.95,2.76,6.44,3.06v-31.97h18.99ZM1191.11,558.65c-10.86,2.48-11.46,24.17,2.9,25.69,19.49,2.06,19.37-30.78-2.9-25.69Z"/>
  <path class="cls-1" d="M1035.48,532.45l-14.68,6.86c-2.23.2-3.49-4.76-7.06-5.58-9.8-2.25-17.65,4.66-8.58,10.55,11.58,7.53,32.74,4.06,36.07,24.88,5.87,36.69-53.16,43.57-63.64,11.9l16.9-8.64c1.69,14.82,32.89,14.52,26.24-.75-3.93-9.04-32.74-5.44-38.16-24.79-9.12-32.54,42.8-42.68,52.91-14.44Z"/>
  <path class="cls-1" d="M1330.95,571.34c0,17.11-13.88,30.99-31,30.99s-31-13.87-31-30.99,13.88-30.99,31-30.99,31,13.87,31,30.99ZM1298.12,557.64c-14.06,1.9-14.79,24.64-1.21,26.71,22.31,3.41,19.86-29.23,1.21-26.71Z"/>
  <path class="cls-1" d="M756.62,543.46v32.47c0,11.6,18.99,10.35,18.99,1v-33.47h18.99v35.46c0,3.88-3.79,11.48-6.61,14.38-15.1,15.57-50.37,8.09-50.37-16.37v-33.47h18.99Z"/>
  <path class="cls-1" d="M1117.44,543.46v32.47c0,11.6,18.99,10.35,18.99,1v-33.47h18.99v35.46c0,3.88-3.79,11.48-6.61,14.38-15.1,15.57-50.37,8.09-50.37-16.37v-33.47h18.99Z"/>
  <path class="cls-1" d="M931.2,560.78c-19.44-14.77-30.56,19.78-12.93,23.4,8.3,1.71,10.64-1.04,16.58-5.6l14.68,6.85c-9.84,22.15-46.93,20.45-56-1.49-15.44-37.37,35.4-59.21,55.98-27.99l-15.49,8.27c-1.32-.13-1.94-2.77-2.82-3.44Z"/>
  <path class="cls-1" d="M823.59,556.46c-3.05,4.5,14.36,7.9,17.2,9.26,22.36,10.71,10.5,35.47-12.69,35.75-9.51.12-25.02-4.95-25.46-16.01l14.91-4.58c2.17,6.76,19.33,7.63,15.58.53-2.94-5.56-26.42-3.85-28.45-20.57-2.34-19.23,26.69-24.79,38.92-14.91,2.19,1.77,6.89,6.09,3.37,8.4-.84.55-10.63,4.63-11.33,4.69-1.82.16-7.01-6.47-12.05-2.56Z"/>
  <polygon class="cls-1" points="1076.46 525.47 1076.46 543.46 1092.45 543.46 1092.45 559.44 1076.46 559.44 1076.46 599.4 1057.47 599.4 1057.47 559.44 1045.48 559.44 1046.02 556.48 1064.89 526.39 1076.46 525.47"/>
  <path class="cls-1" d="M318.85,294.72c0,12.15-9.85,22-22.01,22s-22.01-9.85-22.01-22,9.85-22,22.01-22,22.01,9.85,22.01,22ZM305.16,294.7c0-4.59-3.72-8.31-8.31-8.31s-8.31,3.72-8.31,8.31,3.72,8.31,8.31,8.31,8.31-3.72,8.31-8.31Z"/>
  <rect class="cls-1" x="861.57" y="543.46" width="18.99" height="55.94"/>
  <rect class="cls-1" x="1239.38" y="543.46" width="18.99" height="55.94"/>
  <path class="cls-1" d="M870.36,514.69c15.5-1.33,16.08,21.03,1.63,21.7-14.05.65-16.2-20.45-1.63-21.7Z"/>
  <path class="cls-1" d="M1248.17,514.69c15.5-1.33,16.08,21.03,1.63,21.7-14.05.65-16.2-20.45-1.63-21.7Z"/>
</svg>