<?xml version="1.0" encoding="UTF-8"?>
<svg id="Layer_1" data-name="Layer 1" xmlns="http://www.w3.org/2000/svg" viewBox="0 0 1970.01 585.41">
  <defs>
    <style>
      .cls-1 {
        fill: #fff;
      }
    </style>
  </defs>
  <path class="cls-1" d="M1970.01,0v585.41h-500.75v-29.97h470.76V29.97H556.72v44.96h-42.98l-47.53,200.75c13.29,125-93.72,213.48-215.35,185.38-167.38-38.68-173.47-281.77-9.2-328.9,61.89-17.76,136.45-4.34,181.13,43.65l-57.98,50.53-1.96-.02c-22.37-22.11-53.27-30.04-84.19-25.23-114.25,17.78-97.08,209.62,35.4,188.23,40.75-6.58,61.13-38.33,76.74-73.15,9.67-1.97,19.83-1.67,29.51-3.47,1.6-.3,3.3.45,4.48-1.52.46-2.15-4.25-1.89-5.8-2.17-9.49-1.75-19.29-2.11-28.73-4.25l-56.42-27.03h98.95l47.98-202.8h-39.98V29.97H29.99v525.47h472.76v29.97H0V0h1970.01Z"/>
  <path class="cls-1" d="M1273.36,368.63h-162.92c7.87,39.65,59.19,44.45,85.97,20.49,2.19-1.96,6.62-8.46,8.45-8.49l59.4,30.29c-35.01,61.36-134.24,71.86-187.28,29.6-58.51-46.61-56.91-148.76,4.15-192.59,47.52-34.11,125.16-29.81,164.75,14.79,25.25,28.45,32.98,68.87,27.47,105.91h.01ZM1198.4,319.68c-9.2-44.5-76.28-41.95-87.96,0h87.96Z"/>
  <path class="cls-1" d="M731.63,368.63h-162.92c7.87,39.65,59.19,44.45,85.97,20.49,2.19-1.96,6.62-8.46,8.45-8.49l59.4,30.29c-35.07,61.34-134.22,71.87-187.28,29.6-58.51-46.61-56.91-148.76,4.15-192.59,47.52-34.11,125.16-29.81,164.75,14.79,25.25,28.45,32.98,68.87,27.47,105.91h0ZM656.67,319.68c-9.2-44.5-76.28-41.95-87.96,0h87.96Z"/>
  <path class="cls-1" d="M997.5,458.54h-75.96v-131.37c0-1.42-2.49-8.86-3.24-10.75-13.63-34.26-71.72-24.89-71.72,13.75v128.37h-74.96v-225.77h70.46l1.5,1.5v18.48l8.08-8.41c60.26-39.98,135.76-8.59,144.83,64.86l1.01,149.34Z"/>
  <path class="cls-1" d="M1425.43,298.57c-3.87-9.61-16.67-15.77-26.62-15.93-20.05-.31-24.19,15.96-4.77,23.81,11.03,4.46,24.45,6.35,36.01,9.96,31.9,9.98,63.31,28.65,66.24,65.67,7.64,96.49-146.11,108.21-191.76,43.81-2.23-3.15-10.92-17.18-9.05-20.17l58.41-25.08c1.89.06,5.61,7.29,7.46,9.44,11.79,13.71,30.66,21.31,48.5,15.57,16.84-5.42,13.14-20.4-.23-27.85-19.39-10.79-47.5-11.49-69.59-24.35-52.2-30.36-42.95-97.64,12.04-119.45,42.5-16.85,112.63-9.15,131.17,39.16l-57.8,25.41h-.01Z"/>
  <path class="cls-1" d="M1776.25,298.57c-3.87-9.61-16.67-15.77-26.62-15.93-20.05-.31-24.19,15.96-4.77,23.81,11.03,4.46,24.45,6.35,36.01,9.96,31.9,9.98,63.31,28.65,66.24,65.67,7.64,96.49-146.11,108.21-191.76,43.81-2.23-3.15-10.92-17.18-9.05-20.17l58.41-25.08c1.89.06,5.61,7.29,7.46,9.44,11.79,13.71,30.66,21.31,48.5,15.57,16.84-5.42,13.14-20.4-.23-27.85-19.39-10.79-47.5-11.49-69.59-24.35-52.2-30.36-42.95-97.64,12.04-119.45,42.5-16.85,112.63-9.15,131.17,39.16l-57.8,25.41h-.01Z"/>
  <rect class="cls-1" x="1535.23" y="232.77" width="74.96" height="225.77"/>
  <path class="cls-1" d="M1569.01,120.18c59.57-3.96,65.24,80.68,8.68,85.59-62.15,5.4-68.11-81.65-8.68-85.59Z"/>
  <path class="cls-1" d="M318.85,294.72c0,12.15-9.85,22-22.01,22s-22.01-9.85-22.01-22,9.85-22,22.01-22,22.01,9.85,22.01,22ZM305.16,294.7c0-4.59-3.72-8.31-8.31-8.31s-8.31,3.72-8.31,8.31,3.72,8.31,8.31,8.31,8.31-3.72,8.31-8.31Z"/>
</svg>